<svg xmlns="http://www.w3.org/2000/svg" viewBox="185 125 200 200" preserveAspectRatio="xMidYMid meet" height="20px"><g fill="#fff"><path d="m 288.99053,125.00002 c -25.56893,0.209 -50.16425,2.9779 -64.49768,9.5606 0,0 -28.42747,12.716 -28.42747,56.102 0,9.9349 -0.19311,21.8137 0.12154,34.4113 1.03228,42.4292 7.77823,84.2451 47.00714,94.6283 18.08757,4.7875 33.61778,5.7905 46.12478,5.103 22.68114,-1.2575 35.4136,-8.0942 35.4136,-8.0942 l -0.74818,-16.4567 c 0,0 -16.20841,5.1103 -34.41129,4.4875 -18.03477,-0.6185 -37.07412,-1.9444 -39.99102,-24.0868 -0.26939,-1.9449 -0.40408,-4.0254 -0.40408,-6.2095 0,0 17.70446,4.3277 40.14097,5.3556 13.71924,0.6292 26.58436,-0.8037 39.65167,-2.3629 25.05927,-2.9923 46.87868,-18.4326 49.62101,-32.5409 4.32094,-22.2242 3.96502,-54.2347 3.96502,-54.2347 0,-43.386 -28.42589,-56.102 -28.42589,-56.102 -14.33236,-6.5827 -38.94297,-9.3516 -64.51191,-9.5606 z m -28.9373,33.8999 c 10.65041,0 18.71459,4.0935 24.04734,12.2817 l 5.18513,8.6908 5.18514,-8.6908 c 5.33165,-8.1882 13.39586,-12.2817 24.04733,-12.2817 9.20434,0 16.62068,3.2356 22.28424,9.5479 5.49006,6.3122 8.2236,14.845 8.2236,25.5816 v 52.5332 h -20.81315 v -50.9895 c 0,-10.7485 -4.52221,-16.2042 -13.56815,-16.2042 -10.00173,0 -15.014,6.471 -15.014,19.2679 v 27.9097 h -20.69002 v -27.9097 c 0,-12.7969 -5.01385,-19.2679 -15.01557,-19.2679 -9.04595,0 -13.56816,5.4557 -13.56816,16.2042 v 50.9895 h -20.81314 v -52.5332 c 0,-10.7366 2.73404,-19.2694 8.22518,-25.5816 5.66247,-6.3123 13.07881,-9.5479 22.28423,-9.5479 z"/></g></svg>