<svg xmlns="http://www.w3.org/2000/svg" viewBox="185 125 200 200" preserveAspectRatio="xMidYMid meet" height="20px" width="auto"><g fill="#fff"><path d="m289.76 122.97c-2.2345-0.0144-4.4736 0.0427-6.7109 0.17188-13.313 0.76852-25.059 3.6996-36.5 9.1094-26.747 12.647-47.293 37.492-54.623 66.051-1.9268 7.5072-2.3106 11.571-2.3106 24.5s0.38374 16.993 2.3106 24.5c3.0916 12.045 9.4523 25.226 16.973 35.17 10.171 13.449 22.935 23.919 37.65 30.883 8.4419 3.9952 21.543 7.8797 29.5 8.7461 7.5647 0.82365 20.231 0.64923 27.637-0.38086 9.6392-1.3407 21.807-5.119 30.363-9.4277 7.4479-3.7504 17.167-10.697 24.287-17.357 6.5489-6.1257 16.05-18.865 20.15-27.02 11.476-22.821 13.651-50.873 5.8613-75.572-4.4905-14.239-11.21-25.563-22.719-38.277-6.0644-6.7001-18.98-16.434-27.465-20.701-13.326-6.7013-28.763-10.294-44.404-10.395zm7.1035 54.018h11.248c-0.75761 0.83007-2.3464 3.0974-2.668 5.3164-0.51155 3.5303-0.89471 8.11-1.1992 29.998-0.40762 29.299-1.1014 29.224-3.8652 32.141-1.746 1.8425-6.888 4.3659-11.967 4.3359-4.6712-0.0275-9.7529-2.3837-12.402-5.752-3.5498-4.5128-4.1386-9.5827-3.793-32.635 0.31457-20.978 0.44676-22.276 2.6191-25.77 5.5482-8.1137 16.149-7.6294 22.027-7.6348zm47.275 10.484c6.3295 0.27808 13.257 5.9219 14.914 11.285 0.54156 1.9494 0.98724 13.236 0.99024 25.082 0.005 20.355-0.11769 21.783-2.2441 25.992-5.1359 9.863-15.691 8.8675-21.398 8.8711h-13.156c0-0.20783 1.5734-2.3996 2.5137-4.5293 1.4194-3.2149 1.8013-8.3775 2.25-30.42 0.47013-23.096 0.77014-26.898 2.3047-29.236 2.9265-4.4584 8.408-7.1327 13.826-7.0449zm-111.4 0.004c3.447-0.008 7.1551 0.99456 9.8789 2.7793 1.3888 0.91001 3.401 3.092 4.4727 4.8496 1.7853 2.928 1.9501 5.1676 1.9531 26.729 0.004 22.476 1.3546 30.06 4.2285 36.787h-12.471c-9.2336 0.13861-15.669 0.096-21.162-7.1406-1.9561-2.6375-2.1128-4.3258-2.418-26-0.20103-14.278 0.0758-24.534 0.72266-26.707 3.1663-6.1517 8.3111-11.258 14.795-11.297zm55.814 2.8398c-2.6628 0-4.8203 2.1595-4.8203 4.8223s2.1575 4.8203 4.8203 4.8203 4.8223-2.1575 4.8223-4.8203-2.1595-4.8223-4.8223-4.8223zm-55.105 9.8223c-2.6628 0-4.8223 2.1575-4.8223 4.8203s2.1595 4.8223 4.8223 4.8223 4.8203-2.1595 4.8203-4.8223-2.1575-4.8203-4.8203-4.8203zm109.93 0.17773c-2.6628 0-4.8223 2.1595-4.8223 4.8223s2.1595 4.8203 4.8223 4.8203 4.8223-2.1575 4.8223-4.8203-2.1595-4.8223-4.8223-4.8223zm-54.822 8c-2.6628 0-4.8203 2.1595-4.8203 4.8223s2.1575 4.8203 4.8203 4.8203 4.8223-2.1575 4.8223-4.8203-2.1595-4.8223-4.8223-4.8223zm-55.105 9.8223c-2.6628 0-4.8223 2.1575-4.8223 4.8203s2.1595 4.8223 4.8223 4.8223 4.8203-2.1595 4.8203-4.8223-2.1575-4.8203-4.8203-4.8203zm109.93 0.17773c-2.6628 0-4.8223 2.1595-4.8223 4.8223s2.1595 4.8203 4.8223 4.8203 4.8223-2.1575 4.8223-4.8203-2.1595-4.8223-4.8223-4.8223zm-54.822 8c-2.6628 0-4.8203 2.1595-4.8203 4.8223s2.1575 4.8203 4.8203 4.8203 4.8223-2.1575 4.8223-4.8203-2.1595-4.8223-4.8223-4.8223zm-55.105 9.8223c-2.6628 0-4.8223 2.1575-4.8223 4.8203s2.1595 4.8223 4.8223 4.8223 4.8203-2.1595 4.8203-4.8223-2.1575-4.8203-4.8203-4.8203zm109.93 0.17773c-2.6628 0-4.8223 2.1595-4.8223 4.8223s2.1595 4.8203 4.8223 4.8203 4.8223-2.1575 4.8223-4.8203-2.1595-4.8223-4.8223-4.8223z"/></g></svg>