<?xml version="1.0" encoding="UTF-8" standalone="no"?>
<svg
   xmlns:dc="http://purl.org/dc/elements/1.1/"
   xmlns:cc="http://creativecommons.org/ns#"
   xmlns:rdf="http://www.w3.org/1999/02/22-rdf-syntax-ns#"
   xmlns:svg="http://www.w3.org/2000/svg"
   xmlns="http://www.w3.org/2000/svg"
   xmlns:sodipodi="http://sodipodi.sourceforge.net/DTD/sodipodi-0.dtd"
   xmlns:inkscape="http://www.inkscape.org/namespaces/inkscape"
   viewBox="0 0 128 128"
   id="svg2"
   version="1.1"
   inkscape:version="0.91 r13725"
   sodipodi:docname="angularjs-original.svg"
   inkscape:export-filename="C:\Users\rmantenesse\Documents\Git Repositories\Alamantus.github.io\images\icons\angular.png"
   inkscape:export-xdpi="90"
   inkscape:export-ydpi="90">
  <metadata
     id="metadata18">
    <rdf:RDF>
      <cc:Work
         rdf:about="">
        <dc:format>image/svg+xml</dc:format>
        <dc:type
           rdf:resource="http://purl.org/dc/dcmitype/StillImage" />
      </cc:Work>
    </rdf:RDF>
  </metadata>
  <defs
     id="defs16" />
  <sodipodi:namedview
     pagecolor="#ffffff"
     bordercolor="#666666"
     borderopacity="1"
     objecttolerance="10"
     gridtolerance="10"
     guidetolerance="10"
     inkscape:pageopacity="0"
     inkscape:pageshadow="2"
     inkscape:window-width="686"
     inkscape:window-height="480"
     id="namedview14"
     showgrid="false"
     inkscape:zoom="1.84375"
     inkscape:cx="64"
     inkscape:cy="64"
     inkscape:window-x="2617"
     inkscape:window-y="277"
     inkscape:window-maximized="0"
     inkscape:current-layer="svg2" />
  <path
     fill="#B3B3B3"
     d="M63.81 1.026l-59.257 20.854 9.363 77.637 49.957 27.457 50.214-27.828 9.36-77.635z"
     id="path4" />
  <path
     fill="#A6120D"
     d="M117.536 25.998l-53.864-18.369v112.785l45.141-24.983z"
     id="path6" />
  <path
     fill="#DD1B16"
     d="M11.201 26.329l8.026 69.434 44.444 24.651v-112.787z"
     id="path8" />
  <path
     fill="#F2F2F2"
     d="M78.499 67.67l-14.827 6.934h-15.628l-7.347 18.374-13.663.254 36.638-81.508 14.827 55.946zm-1.434-3.491l-13.295-26.321-10.906 25.868h10.807l13.394.453z"
     id="path10" />
  <path
     fill="#B3B3B3"
     d="M63.671 11.724l.098 26.134 12.375 25.888h-12.446l-.027 10.841 17.209.017 8.042 18.63 13.074.242z"
     id="path12" />
</svg>
