<?xml version="1.0" encoding="UTF-8" standalone="no"?>
<svg
   xmlns:dc="http://purl.org/dc/elements/1.1/"
   xmlns:cc="http://creativecommons.org/ns#"
   xmlns:rdf="http://www.w3.org/1999/02/22-rdf-syntax-ns#"
   xmlns:svg="http://www.w3.org/2000/svg"
   xmlns="http://www.w3.org/2000/svg"
   xmlns:sodipodi="http://sodipodi.sourceforge.net/DTD/sodipodi-0.dtd"
   xmlns:inkscape="http://www.inkscape.org/namespaces/inkscape"
   viewBox="0 0 128 128"
   id="svg2"
   version="1.1"
   inkscape:version="0.91 r13725"
   sodipodi:docname="css3-original.svg"
   inkscape:export-filename="C:\Users\rmantenesse\Documents\Git Repositories\Alamantus.github.io\images\icons\css.png"
   inkscape:export-xdpi="90"
   inkscape:export-ydpi="90">
  <metadata
     id="metadata20">
    <rdf:RDF>
      <cc:Work
         rdf:about="">
        <dc:format>image/svg+xml</dc:format>
        <dc:type
           rdf:resource="http://purl.org/dc/dcmitype/StillImage" />
      </cc:Work>
    </rdf:RDF>
  </metadata>
  <defs
     id="defs18" />
  <sodipodi:namedview
     pagecolor="#ffffff"
     bordercolor="#666666"
     borderopacity="1"
     objecttolerance="10"
     gridtolerance="10"
     guidetolerance="10"
     inkscape:pageopacity="0"
     inkscape:pageshadow="2"
     inkscape:window-width="690"
     inkscape:window-height="405"
     id="namedview16"
     showgrid="false"
     inkscape:zoom="1.84375"
     inkscape:cx="49.898305"
     inkscape:cy="64"
     inkscape:window-x="2479"
     inkscape:window-y="341"
     inkscape:window-maximized="0"
     inkscape:current-layer="svg2" />
  <path
     fill="#1572B6"
     d="M18.814 114.123l-10.054-112.771h110.48l-10.064 112.754-45.243 12.543-45.119-12.526z"
     id="path4" />
  <path
     fill="#33A9DC"
     d="M64.001 117.062l36.559-10.136 8.601-96.354h-45.16v106.49z"
     id="path6" />
  <path
     fill="#fff"
     d="M64.001 51.429h18.302l1.264-14.163h-19.566v-13.831h34.681999999999995l-.332 3.711-3.4 38.114h-30.95v-13.831z"
     id="path8" />
  <path
     fill="#EBEBEB"
     d="M64.083 87.349l-.061.018-15.403-4.159-.985-11.031h-13.882l1.937 21.717 28.331 7.863.063-.018v-14.39z"
     id="path10" />
  <path
     fill="#fff"
     d="M81.127 64.675l-1.666 18.522-15.426 4.164v14.39l28.354-7.858.208-2.337 2.406-26.881h-13.876z"
     id="path12" />
  <path
     fill="#EBEBEB"
     d="M64.048 23.435v13.831000000000001h-33.407999999999994l-.277-3.108-.63-7.012-.331-3.711h34.646zM64.001 51.431v13.831000000000001h-15.209l-.277-3.108-.631-7.012-.33-3.711h16.447z"
     id="path14" />
</svg>
