<?xml version="1.0" encoding="UTF-8" standalone="no"?>
<svg
   xmlns:dc="http://purl.org/dc/elements/1.1/"
   xmlns:cc="http://creativecommons.org/ns#"
   xmlns:rdf="http://www.w3.org/1999/02/22-rdf-syntax-ns#"
   xmlns:svg="http://www.w3.org/2000/svg"
   xmlns="http://www.w3.org/2000/svg"
   xmlns:sodipodi="http://sodipodi.sourceforge.net/DTD/sodipodi-0.dtd"
   xmlns:inkscape="http://www.inkscape.org/namespaces/inkscape"
   viewBox="0 0 128 128"
   id="svg2"
   version="1.1"
   inkscape:version="0.91 r13725"
   sodipodi:docname="html5-original.svg"
   inkscape:export-filename="C:\Users\rmantenesse\Documents\Git Repositories\Alamantus.github.io\images\icons\html.png"
   inkscape:export-xdpi="90"
   inkscape:export-ydpi="90">
  <metadata
     id="metadata16">
    <rdf:RDF>
      <cc:Work
         rdf:about="">
        <dc:format>image/svg+xml</dc:format>
        <dc:type
           rdf:resource="http://purl.org/dc/dcmitype/StillImage" />
      </cc:Work>
    </rdf:RDF>
  </metadata>
  <defs
     id="defs14" />
  <sodipodi:namedview
     pagecolor="#ffffff"
     bordercolor="#666666"
     borderopacity="1"
     objecttolerance="10"
     gridtolerance="10"
     guidetolerance="10"
     inkscape:pageopacity="0"
     inkscape:pageshadow="2"
     inkscape:window-width="690"
     inkscape:window-height="405"
     id="namedview12"
     showgrid="false"
     inkscape:zoom="1.84375"
     inkscape:cx="64"
     inkscape:cy="64"
     inkscape:window-x="2269"
     inkscape:window-y="258"
     inkscape:window-maximized="0"
     inkscape:current-layer="svg2" />
  <path
     fill="#E44D26"
     d="M19.037 113.876l-10.005-112.215h109.936l-10.016 112.198-45.019 12.48z"
     id="path4" />
  <path
     fill="#F16529"
     d="M64 116.8l36.378-10.086 8.559-95.878h-44.937z"
     id="path6" />
  <path
     fill="#EBEBEB"
     d="M64 52.455h-18.212l-1.258-14.094h19.47v-13.762h-34.511l.33 3.692 3.382 37.927h30.799zM64 88.198l-.061.017-15.327-4.14-.979-10.975h-13.817l1.928 21.609 28.193 7.826.063-.017z"
     id="path8" />
  <path
     fill="#fff"
     d="M63.952 52.455v13.763h16.947l-1.597 17.849-15.35 4.143v14.319l28.215-7.82.207-2.325 3.234-36.233.335-3.696h-3.708zM63.952 24.599v13.762h33.244l.276-3.092.628-6.978.329-3.692z"
     id="path10" />
</svg>
