<?xml version="1.0" encoding="UTF-8" standalone="no"?>
<svg
   xmlns:dc="http://purl.org/dc/elements/1.1/"
   xmlns:cc="http://creativecommons.org/ns#"
   xmlns:rdf="http://www.w3.org/1999/02/22-rdf-syntax-ns#"
   xmlns:svg="http://www.w3.org/2000/svg"
   xmlns="http://www.w3.org/2000/svg"
   xmlns:sodipodi="http://sodipodi.sourceforge.net/DTD/sodipodi-0.dtd"
   xmlns:inkscape="http://www.inkscape.org/namespaces/inkscape"
   viewBox="0 0 128 128"
   id="svg2"
   version="1.1"
   inkscape:version="0.91 r13725"
   sodipodi:docname="wordpress-original.svg"
   inkscape:export-filename="C:\Users\rmantenesse\Documents\Git Repositories\Alamantus.github.io\images\icons\wordpress.png"
   inkscape:export-xdpi="90"
   inkscape:export-ydpi="90">
  <metadata
     id="metadata22">
    <rdf:RDF>
      <cc:Work
         rdf:about="">
        <dc:format>image/svg+xml</dc:format>
        <dc:type
           rdf:resource="http://purl.org/dc/dcmitype/StillImage" />
      </cc:Work>
    </rdf:RDF>
  </metadata>
  <defs
     id="defs20" />
  <sodipodi:namedview
     pagecolor="#ffffff"
     bordercolor="#666666"
     borderopacity="1"
     objecttolerance="10"
     gridtolerance="10"
     guidetolerance="10"
     inkscape:pageopacity="0"
     inkscape:pageshadow="2"
     inkscape:window-width="690"
     inkscape:window-height="405"
     id="namedview18"
     showgrid="false"
     inkscape:zoom="1.84375"
     inkscape:cx="64"
     inkscape:cy="64"
     inkscape:window-x="2391"
     inkscape:window-y="334"
     inkscape:window-maximized="0"
     inkscape:current-layer="svg2" />
  <path
     d="M 65.409625,5.5159174 C 32.879571,4.9353056 5.6989194,31.331281 5.6904167,63.340242 5.6806994,96.269922 31.609027,122.542 64.088065,122.49341 96.26465,122.44604 122.30958,96.272351 122.30958,63.986446 122.30837,32.225277 96.382473,6.0685919 65.409625,5.5159174 Z M 64.015185,119.55756 C 33.252474,119.56485 8.5120931,94.621616 8.5133078,63.601396 8.5145225,33.380427 33.638739,8.3582432 63.992106,8.3473112 94.883572,8.3375938 119.49641,33.435088 119.48669,64.935102 119.47698,94.673847 94.213074,119.55148 64.015185,119.55756 Z M 93.647038,47.470589 C 92.439657,45.480961 90.955332,43.550852 90.272687,41.381453 89.495299,38.913245 88.85031,36.103716 89.262083,33.629435 89.961732,29.433967 93.179391,27.35081 97.536409,26.952398 73.699742,4.8296293 36.241775,12.748057 22.439489,36.785145 c 5.312963,-0.246578 10.385422,-0.568465 15.461524,-0.636487 0.960803,-0.01336 2.550805,0.798038 2.776734,1.551133 0.505302,1.682317 -0.908573,2.269002 -2.412333,2.384395 -1.580285,0.123897 -3.162999,0.24172 -4.998364,0.381406 6.061199,18.056057 12.031298,35.843672 18.141084,54.045489 0.436066,-0.713011 0.615837,-0.913431 0.69479,-1.147862 3.354917,-10.027094 6.729268,-20.048114 9.999157,-30.10436 0.298808,-0.917075 0.150619,-2.131744 -0.177342,-3.074328 -1.729689,-4.993505 -3.801914,-9.878904 -5.319036,-14.933142 -1.038542,-3.460592 -2.414762,-5.699228 -6.504553,-5.298387 -0.69722,0.06802 -1.546274,-1.43088 -2.327306,-2.205839 0.943798,-0.562392 1.880307,-1.598505 2.832608,-1.613081 8.328986,-0.126325 16.660402,-0.126325 24.988174,0.0073 0.95473,0.01579 1.891239,1.079841 2.836252,1.656809 -0.82719,0.755524 -1.538986,1.887596 -2.505862,2.179117 -1.549918,0.467647 -3.268675,0.378976 -5.123475,0.544171 6.067273,18.04634 12.009434,35.725849 18.162948,54.033342 2.75244,-9.13917 5.312963,-17.532534 7.800605,-25.945333 2.222845,-7.509084 0.898855,-14.523798 -3.118056,-21.138887 z M 50.175245,110.89332 c -0.11175,0.32432 -0.117823,0.68386 -0.204065,1.22317 10.273672,2.84719 20.345708,2.64191 30.658249,-0.83204 L 64.8776,68.139399 C 59.835508,82.793168 55.001125,96.842031 50.175245,110.89332 Z m -7.937863,-1.95076 C 34.27644,87.104029 26.41996,65.549725 18.505176,43.841158 7.7990824,64.754117 15.943439,96.66226 42.237382,108.94256 Z M 108.37854,41.646251 c -0.32796,3.636719 -0.0996,7.685212 -1.143,11.371732 -2.45727,8.687314 -5.46115,17.225223 -8.353278,25.786211 -3.143563,9.304366 -6.413453,18.567433 -9.628682,27.848716 15.10684,-8.954537 23.40789,-22.171352 24.72945,-39.54355 0.75309,-9.887407 -2.6577,-23.579157 -5.60449,-25.463109 z"
     id="path16"
     inkscape:connector-curvature="0"
     style="clip-rule:evenodd;fill:#494949;fill-rule:evenodd" />
</svg>
